<svg xmlns="http://www.w3.org/2000/svg" xmlns:xlink="http://www.w3.org/1999/xlink" width="1000" zoomAndPan="magnify" viewBox="0 0 750 749.999995" height="1000" preserveAspectRatio="xMidYMid meet" version="1.0"><defs><clipPath id="f2ab2429dd"><path d="M 249 234 L 608.988281 234 L 608.988281 657 L 249 657 Z M 249 234 " clip-rule="nonzero"/></clipPath><clipPath id="8a8457952e"><path d="M 140.988281 93.058594 L 499 93.058594 L 499 516 L 140.988281 516 Z M 140.988281 93.058594 " clip-rule="nonzero"/></clipPath></defs><g clip-path="url(#f2ab2429dd)"><path fill="#000000" d="M 520.394531 258.425781 C 545.863281 290.261719 561.109375 330.617188 561.109375 374.457031 C 561.109375 477.0625 477.621094 560.53125 374.988281 560.53125 C 374.789062 560.53125 374.589844 560.535156 374.390625 560.539062 L 374.390625 513.269531 L 249.910156 585.0625 L 374.390625 656.859375 L 374.390625 608.394531 C 374.589844 608.394531 374.789062 608.394531 374.988281 608.394531 C 406.566406 608.394531 437.21875 602.210938 466.082031 590.003906 C 493.945312 578.21875 518.96875 561.351562 540.453125 539.878906 C 561.9375 518.398438 578.800781 493.382812 590.59375 465.527344 C 602.800781 436.671875 608.988281 406.035156 608.988281 374.457031 C 608.988281 342.886719 602.800781 312.246094 590.59375 283.394531 C 583.152344 265.8125 573.691406 249.367188 562.320312 234.222656 L 520.394531 258.425781 " fill-opacity="1" fill-rule="nonzero"/></g><g clip-path="url(#8a8457952e)"><path fill="#000000" d="M 374.390625 140.523438 C 343.023438 140.605469 312.578125 146.785156 283.898438 158.917969 C 256.03125 170.703125 231.007812 187.5625 209.523438 209.039062 C 188.042969 230.519531 171.175781 255.539062 159.386719 283.394531 C 147.179688 312.246094 140.988281 342.886719 140.988281 374.457031 C 140.988281 406.035156 147.179688 436.671875 159.386719 465.527344 C 166.957031 483.417969 176.621094 500.136719 188.261719 515.496094 L 230.214844 491.28125 C 204.367188 459.324219 188.867188 418.664062 188.867188 374.457031 C 188.867188 272.054688 272.035156 188.71875 374.390625 188.394531 L 374.390625 236.847656 L 498.871094 165.054688 L 374.390625 93.257812 L 374.390625 140.523438 " fill-opacity="1" fill-rule="nonzero"/></g></svg>